<?xml version="1.0" standalone="no"?>
<!DOCTYPE svg PUBLIC "-//W3C//DTD SVG 20010904//EN"
 "http://www.w3.org/TR/2001/REC-SVG-20010904/DTD/svg10.dtd">
<svg version="1.0" xmlns="http://www.w3.org/2000/svg"
 width="500.000000pt" height="500.000000pt" viewBox="0 0 500.000000 500.000000"
 preserveAspectRatio="xMidYMid meet">
<metadata>
Created by potrace 1.16, written by Peter Selinger 2001-2019
</metadata>
<g transform="translate(0.000000,500.000000) scale(0.100000,-0.100000)"
fill="#000000" stroke="none">
<path d="M4238 4317 c-11 -8 -17 -38 -21 -96 -8 -128 -16 -130 -123 -32 -55
50 -98 81 -111 81 l-23 0 0 -205 c0 -120 4 -205 9 -205 12 0 18 20 26 88 8 59
33 99 58 89 9 -3 40 -43 70 -89 29 -46 61 -89 70 -97 22 -17 112 -10 133 11
27 27 56 445 31 453 -39 12 -106 13 -119 2z"/>
<path d="M4302 3668 c-18 -18 -14 -46 8 -58 11 -6 20 -19 20 -28 0 -49 57 -56
95 -10 29 34 28 72 -2 96 -21 15 -105 16 -121 0z"/>
<path d="M4283 3501 c-53 -9 -85 -38 -113 -102 -17 -41 -20 -61 -14 -112 8
-72 34 -130 69 -153 33 -22 132 -14 196 15 40 18 50 29 73 80 30 67 28 127 -7
195 -31 60 -117 92 -204 77z m76 -126 c32 -16 47 -65 30 -97 -13 -24 -74 -51
-99 -43 -22 7 -44 66 -35 95 6 20 51 60 67 60 5 0 22 -7 37 -15z"/>
<path d="M3632 1734 c-12 -8 -22 -21 -21 -27 4 -28 -14 -78 -27 -73 -7 3 -15
-3 -17 -12 -3 -12 -5 -11 -6 5 -1 27 -21 42 -21 16 0 -14 -2 -15 -9 -4 -5 7
-14 12 -22 9 -8 -3 -6 -10 10 -25 18 -17 20 -21 7 -26 -9 -4 -15 -2 -13 4 1 6
-7 16 -18 22 -11 7 -24 18 -28 25 -5 7 -18 10 -35 6 -29 -7 -54 -24 -35 -24 6
0 18 -11 27 -25 9 -14 13 -24 9 -24 -4 1 -16 -1 -26 -6 -11 -4 -23 -3 -29 3
-8 8 -18 6 -34 -5 -31 -20 -30 -35 3 -50 42 -20 56 -17 51 12 -4 19 -1 25 13
25 22 0 24 -10 7 -29 -10 -11 -10 -13 0 -7 27 16 10 -14 -18 -31 -29 -17 -39
-33 -21 -33 5 0 11 -9 14 -20 4 -18 1 -19 -29 -16 -23 3 -34 0 -34 -8 0 -20
12 -27 26 -15 8 7 14 7 19 -1 3 -6 10 -8 15 -5 4 3 6 -4 3 -15 -3 -11 0 -20 6
-20 20 0 12 -28 -10 -33 -16 -4 -20 -11 -16 -26 4 -19 3 -19 -16 -9 -12 7 -29
11 -38 10 -9 -2 -19 4 -22 12 -4 9 -2 15 2 13 5 -1 9 2 10 8 0 5 -7 10 -16 10
-10 0 -19 8 -21 18 -2 12 3 17 18 17 13 0 20 5 18 13 -6 15 -30 17 -40 3 -4
-6 -16 11 -27 37 -11 26 -25 47 -31 47 -6 0 -9 4 -6 8 9 16 -49 107 -79 122
-16 8 -32 16 -34 17 -2 2 2 9 8 17 28 33 3 39 -143 33 -148 -5 -176 -10 -176
-33 0 -8 -7 -14 -15 -14 -8 0 -15 5 -15 10 0 6 -9 10 -19 10 -11 0 -21 4 -23
9 -2 5 -31 5 -68 -1 -36 -5 -90 -7 -122 -3 -36 4 -59 2 -63 -5 -4 -6 -15 -8
-26 -5 -11 4 -112 8 -225 9 -159 2 -204 0 -200 -10 7 -18 -18 -11 -40 10 -18
18 -18 18 -29 0 -5 -10 -23 -31 -38 -46 -16 -15 -26 -32 -23 -37 4 -5 2 -12
-4 -16 -18 -11 -12 -35 8 -28 15 6 15 5 3 -10 -7 -9 -9 -17 -3 -17 12 0 10
-32 -3 -42 -11 -8 -39 28 -31 41 7 10 -31 61 -45 61 -5 0 -9 -9 -9 -20 0 -11
5 -20 11 -20 5 0 7 -5 4 -11 -4 -6 -19 -7 -35 -4 -23 5 -30 2 -35 -16 -8 -24
12 -44 30 -29 7 6 11 2 12 -11 1 -11 -2 -17 -8 -14 -5 4 -9 1 -9 -4 0 -6 5
-11 10 -11 16 0 12 -26 -7 -41 -9 -8 -14 -9 -10 -2 4 7 -5 15 -23 22 -24 8
-29 7 -23 -2 5 -9 3 -9 -8 -2 -21 15 -52 12 -54 -6 -2 -11 5 -14 26 -13 29 2
47 -20 27 -32 -7 -5 -8 -2 -3 6 6 9 0 10 -26 5 -19 -4 -35 -11 -37 -16 -2 -5
-8 -9 -14 -9 -7 0 -7 5 1 13 17 21 1 28 -18 8 -9 -10 -28 -23 -43 -29 -23 -10
-28 -9 -28 3 0 8 -6 12 -14 9 -9 -3 -17 3 -21 16 -7 21 -8 20 -36 -11 -16 -18
-29 -36 -29 -41 0 -14 33 -23 38 -10 5 17 19 15 26 -3 6 -18 -2 -45 -15 -45
-4 0 -5 8 -2 18 6 15 5 16 -12 2 -11 -9 -16 -10 -11 -2 4 6 3 12 -2 12 -6 0
-13 -7 -16 -16 -9 -22 -8 -26 6 -18 7 4 8 3 4 -5 -4 -6 -11 -9 -16 -6 -4 3
-14 -3 -21 -12 -12 -15 -12 -16 4 -10 9 3 17 3 17 -2 0 -12 -39 -23 -72 -21
-30 2 -46 -17 -28 -33 10 -9 11 -9 6 0 -11 20 14 26 35 7 19 -17 19 -19 3 -31
-14 -10 -14 -13 -3 -13 8 0 3 -6 -10 -13 -13 -6 -25 -20 -27 -31 -4 -27 -25
-45 -32 -27 -3 10 -9 7 -19 -10 l-14 -24 6 25 c5 23 5 23 -11 -4 -12 -22 -13
-30 -4 -36 9 -6 9 -13 1 -29 -7 -11 -8 -21 -4 -21 5 0 14 -9 21 -21 8 -12 9
-18 3 -14 -6 3 -11 0 -11 -8 0 -7 7 -14 15 -14 8 0 15 4 15 9 0 4 5 8 12 8 6
0 1 -11 -11 -24 l-22 -23 23 -7 23 -7 -26 -10 c-19 -7 -25 -15 -22 -27 3 -15
-2 -18 -29 -18 -24 0 -33 -4 -32 -15 1 -9 -8 -21 -18 -28 -15 -10 -18 -10 -13
0 5 7 3 10 -4 8 -7 -3 -24 -31 -38 -64 -35 -83 -46 -109 -52 -119 -2 -5 1 -6
7 -2 6 3 13 2 17 -4 3 -5 -2 -10 -13 -10 -21 0 -27 -11 -107 -205 -32 -77 -63
-153 -70 -170 -14 -32 -45 -145 -45 -164 0 -7 32 -11 94 -11 l94 0 18 75 c10
41 21 75 24 75 4 0 15 21 25 47 53 147 82 217 120 300 24 51 41 93 37 93 -4 0
-2 4 3 8 17 12 45 69 45 91 0 12 4 21 9 21 15 0 31 58 18 64 -8 3 -7 5 2 5 11
1 11 4 1 16 -7 9 -10 19 -6 22 4 4 11 1 15 -6 5 -7 14 -11 20 -7 13 9 18 -16
26 -134 4 -52 9 -97 11 -99 2 -2 21 -4 41 -4 l37 0 -2 41 c-3 36 0 42 26 56
30 15 30 15 51 -20 l22 -36 22 33 c34 52 61 50 82 -5 9 -24 14 -49 10 -55 -13
-23 6 -31 36 -15 37 19 62 12 77 -22 18 -38 15 -59 -14 -94 -15 -17 -25 -32
-23 -33 2 -1 17 -9 34 -17 63 -33 52 -120 -16 -120 -33 0 -33 -3 -13 -72 6
-22 -29 -58 -57 -58 -12 0 -34 14 -49 30 -31 33 -40 37 -40 16 0 -19 -27 -46
-46 -46 -8 0 -26 12 -41 26 -23 23 -25 31 -19 75 l7 49 -41 0 c-27 0 -43 5
-46 15 -4 8 -11 15 -16 15 -11 0 -1 -215 12 -262 5 -15 6 -36 3 -48 -5 -20 -3
-20 341 -20 190 0 346 2 346 5 0 2 -5 16 -12 30 -11 26 -32 33 -43 15 -3 -6
-20 -17 -36 -25 -53 -28 -88 17 -68 88 10 36 9 37 -32 46 -27 5 -34 13 -47 54
-15 46 -14 48 8 72 13 14 31 27 42 31 23 7 23 22 -1 48 -32 37 -47 116 -21
116 5 0 18 10 30 22 21 23 21 23 93 -7 14 -6 17 -2 17 25 0 39 16 70 36 70 8
0 26 7 39 16 31 20 44 11 70 -46 18 -40 29 -48 40 -30 9 14 81 50 99 50 9 0
23 -14 32 -31 14 -29 14 -35 0 -73 -21 -55 -21 -56 18 -56 23 0 38 7 48 22
l14 22 22 -22 c28 -28 28 -58 2 -72 -14 -8 -19 -17 -15 -30 12 -38 -42 -90
-95 -90 -26 0 -25 -4 5 -45 35 -45 44 -102 19 -111 -11 -4 -26 -16 -35 -27
-14 -17 -20 -19 -49 -8 -18 6 -34 10 -35 9 -2 -2 -6 -18 -10 -35 l-7 -33 254
1 c150 0 244 4 232 9 -23 9 -38 67 -28 106 5 20 3 21 -42 16 -57 -6 -74 11
-74 71 0 32 7 46 36 73 l36 34 -31 36 c-31 35 -40 77 -20 89 5 4 15 18 20 32
8 23 13 25 47 20 l37 -6 1 43 c1 61 22 110 40 95 11 -9 18 -8 29 1 9 7 17 11
18 9 2 -2 14 -21 27 -41 14 -21 28 -38 31 -38 3 0 17 13 31 29 20 22 32 27 52
24 31 -6 40 -31 31 -83 l-6 -38 47 1 c43 2 49 -1 57 -24 13 -35 3 -70 -29
-102 -25 -26 -25 -47 0 -47 31 0 54 -54 33 -79 -7 -8 -12 -17 -11 -20 5 -32
-15 -46 -60 -42 -15 1 -17 -3 -12 -21 19 -65 19 -88 0 -95 -11 -4 -24 -13 -30
-21 -14 -19 -50 -8 -79 24 l-22 24 -27 -40 -26 -40 350 0 350 0 5 23 c6 23 9
56 21 195 l7 82 -47 0 -46 0 0 -55 c0 -56 -12 -69 -38 -43 -9 9 -12 7 -12 -10
0 -33 -18 -26 -35 13 l-14 36 -31 -33 c-19 -19 -33 -28 -36 -22 -3 7 -14 10
-24 7 -18 -5 -20 0 -20 36 0 23 5 52 11 63 11 20 9 21 -20 15 -23 -5 -33 -3
-37 8 -4 8 -12 15 -20 15 -19 0 -18 40 2 68 8 12 23 22 33 22 29 0 33 12 11
35 -12 12 -23 38 -27 58 -4 30 -2 37 21 52 25 16 46 16 92 -2 15 -6 16 -2 11
32 -8 47 16 105 41 100 9 -2 20 -4 24 -4 3 -1 11 -15 17 -33 l11 -32 33 32
c18 18 41 32 50 32 22 0 32 -42 18 -80 -10 -31 -10 -31 22 -27 23 2 32 9 33
23 1 10 2 54 3 97 1 73 14 101 27 60 3 -10 23 -54 44 -98 114 -237 211 -467
251 -592 l23 -73 82 0 c57 0 84 4 87 13 4 9 6 9 6 0 1 -7 5 -13 10 -13 10 0
-6 64 -33 140 -9 24 -14 50 -12 57 5 13 -33 95 -46 101 -5 2 -8 17 -8 33 0 17
-4 28 -8 25 -4 -3 -21 25 -37 62 -16 37 -55 125 -87 196 -44 97 -56 131 -46
137 10 6 8 16 -6 46 -10 21 -61 144 -113 273 -78 195 -93 241 -88 269 4 23 2
37 -7 42 -10 7 -10 9 0 9 8 0 12 15 12 43 -1 38 -2 40 -14 24 -9 -12 -15 -14
-18 -6 -3 9 -9 9 -25 0 -12 -6 -24 -7 -27 -2 -3 5 4 11 17 15 17 4 19 8 9 15
-11 7 -11 9 2 14 9 4 16 11 16 17 0 6 -7 4 -16 -4 -8 -9 -20 -14 -25 -11 -5 4
-6 0 -3 -8 7 -20 -16 -33 -27 -16 -5 8 -9 9 -9 4 0 -6 5 -16 10 -21 7 -7 6
-11 -5 -11 -8 0 -13 3 -10 5 3 3 -2 13 -11 23 -16 18 -11 44 6 34 5 -3 16 7
24 22 8 15 15 22 16 16 0 -7 6 -13 14 -13 9 0 12 7 9 20 -6 22 12 28 20 8 4
-10 8 -9 16 2 9 13 11 13 11 0 0 -11 4 -10 18 4 12 13 14 20 5 23 -15 6 -17
33 -3 33 5 0 9 24 9 54 -1 29 2 59 5 65 10 16 -16 13 -42 -5z m-1502 -708
c127 -14 234 -14 663 -3 74 2 95 -4 61 -17 -9 -3 -27 -6 -40 -6 -41 0 -57 -14
-138 -120 -43 -55 -83 -100 -91 -100 -7 0 -55 44 -107 98 l-93 99 -63 5 -63 6
-52 -46 c-29 -25 -71 -66 -94 -91 -35 -39 -44 -44 -60 -35 -21 12 -99 114
-144 187 l-31 50 59 -6 c32 -3 119 -13 193 -21z m-237 -131 c49 -63 91 -115
95 -115 4 0 38 -5 76 -10 l69 -10 93 90 c82 81 95 90 113 80 12 -6 21 -14 21
-18 0 -4 38 -47 84 -96 61 -64 89 -87 101 -82 9 3 38 6 64 6 l48 0 77 99 c103
132 100 130 136 96 38 -37 38 -51 0 -29 -29 18 -29 18 -52 -11 -13 -16 -38
-52 -56 -80 -26 -40 -30 -51 -17 -53 9 -2 24 7 35 20 19 22 19 22 20 2 0 -11
2 -23 5 -26 5 -4 71 4 104 13 7 2 15 -1 18 -8 5 -13 -40 -28 -108 -38 -25 -3
-59 -9 -75 -12 -16 -3 -123 -6 -239 -7 -201 0 -362 15 -475 45 -19 5 -54 13
-77 19 -29 7 -41 15 -37 24 5 12 -19 61 -36 76 -4 3 -21 29 -40 58 -18 28 -37
52 -42 52 -5 0 -20 -7 -33 -16 -14 -9 -25 -13 -25 -8 0 9 49 54 60 54 3 0 45
-52 93 -115z m332 -216 c133 -14 396 -18 474 -8 104 13 204 18 195 10 -21 -19
-143 -33 -335 -38 -199 -6 -253 -2 -444 29 -79 12 -118 33 -45 24 25 -4 95
-11 155 -17z"/>
<path d="M3416 521 c-3 -5 -15 -7 -27 -4 -19 5 -30 -11 -31 -44 -1 -4 -9 -13
-18 -20 -14 -10 -16 -20 -10 -45 3 -18 12 -32 18 -30 7 1 12 -9 12 -22 0 -24
22 -41 35 -28 4 4 19 7 33 7 19 0 28 6 30 20 3 11 13 26 23 33 22 15 25 38 7
45 -10 3 -10 7 -1 17 14 15 6 40 -13 40 -8 0 -14 9 -14 20 0 21 -33 29 -44 11z"/>
<path d="M1625 500 c-3 -5 -12 -7 -19 -4 -15 6 -30 -22 -20 -38 3 -5 -1 -15
-11 -21 -13 -10 -14 -18 -6 -40 6 -15 15 -27 20 -27 5 0 11 -10 13 -22 5 -36
108 -47 108 -12 0 8 4 14 9 14 15 0 24 40 12 54 -5 6 -8 21 -5 33 4 15 0 23
-15 28 -12 3 -21 12 -21 20 0 7 -10 15 -22 19 -31 8 -36 8 -43 -4z"/>
<path d="M2853 389 c-3 -11 -11 -18 -19 -15 -7 3 -18 -2 -25 -10 -9 -11 -8
-18 6 -34 17 -18 17 -20 1 -20 -9 0 -19 -7 -22 -15 -8 -20 14 -45 32 -38 12 4
14 -1 12 -23 -3 -28 -1 -29 45 -31 35 -2 47 1 47 12 0 8 6 12 14 9 19 -7 42
34 27 49 -8 8 -6 16 7 30 16 18 16 20 -3 33 -10 8 -20 21 -21 30 -1 9 -4 17
-6 17 -2 1 -13 8 -25 15 -34 18 -64 15 -70 -9z"/>
<path d="M2152 378 c-7 -7 -12 -20 -12 -30 0 -11 -7 -18 -20 -18 -16 0 -20 -7
-20 -36 0 -33 2 -36 25 -32 29 6 31 2 9 -19 -14 -14 -14 -17 0 -32 14 -13 20
-13 36 -3 17 11 20 10 20 -8 0 -14 7 -20 21 -20 18 0 20 4 15 25 -6 24 -5 25
14 13 18 -11 23 -10 36 6 12 17 12 22 -1 36 -12 14 -12 17 5 28 21 13 17 42
-6 42 -8 0 -14 10 -14 24 0 30 -30 43 -47 20 -11 -16 -13 -16 -19 -1 -7 20
-25 22 -42 5z"/>
</g>
</svg>
